<?xml version="1.0" encoding="utf-8"?>
<!-- Generator: Adobe Illustrator 18.1.0, SVG Export Plug-In . SVG Version: 6.00 Build 0)  -->
<svg version="1.1" id="Layer_1" xmlns="http://www.w3.org/2000/svg" xmlns:xlink="http://www.w3.org/1999/xlink" x="0px" y="0px"
	 viewBox="141.9 17.5 116.3 89.1" enable-background="new 141.9 17.5 116.3 89.1" xml:space="preserve">
<g>
	<path fill="#FFFFFF" d="M214.4,47.7c-12.2,0-22.1,9.9-22.1,22.1s9.9,22.1,22.1,22.1c12.2,0,22.1-9.9,22.1-22.1
		S226.6,47.7,214.4,47.7z M214.4,86.7c-9.3,0-16.9-7.6-16.9-16.9s7.5-16.9,16.9-16.9c9.3,0,16.9,7.6,16.9,16.9
		S223.7,86.7,214.4,86.7z"/>
	<path fill="#FFFFFF" d="M252.6,33H200v-2h14.4V17.5h-39.1V31h9.9v2h-37.8c-3.1,0-5.6,2.5-5.6,5.6V101c0,3.1,2.5,5.6,5.6,5.6h105.1
		c3.1,0,5.6-2.5,5.6-5.6V38.6C258.1,35.5,255.6,33,252.6,33z M162.7,100.3h-13.2v-4.6h13.2V100.3z M179,58.5h-28.2V43H179V58.5z
		 M214.4,99.1c-16.2,0-29.3-13.2-29.3-29.3c0-16.2,13.2-29.3,29.3-29.3c16.2,0,29.3,13.2,29.3,29.3C243.7,86,230.6,99.1,214.4,99.1z
		"/>
</g>
</svg>
