<?xml version="1.0" encoding="utf-8"?>
<!-- Generator: Adobe Illustrator 18.1.0, SVG Export Plug-In . SVG Version: 6.00 Build 0)  -->
<svg version="1.1" id="Layer_1" xmlns="http://www.w3.org/2000/svg" xmlns:xlink="http://www.w3.org/1999/xlink" x="0px" y="0px"
	 viewBox="147.2 0 104.7 103.4" enable-background="new 147.2 0 104.7 103.4" xml:space="preserve">
<g>
	<circle fill="#4B134B" cx="209.4" cy="89.4" r="2.3"/>
	<circle fill="#4B134B" cx="209.4" cy="80.1" r="2.3"/>
	<circle fill="#4B134B" cx="204.8" cy="84.7" r="2.3"/>
	<circle fill="#4B134B" cx="200.1" cy="89.4" r="2.3"/>
	<circle fill="#4B134B" cx="200.1" cy="80.1" r="2.3"/>
	<circle fill="#4B134B" cx="214.1" cy="84.7" r="2.3"/>
	<circle fill="#4B134B" cx="223.4" cy="84.7" r="2.3"/>
	<circle fill="#4B134B" cx="228" cy="89.4" r="2.3"/>
	<circle fill="#4B134B" cx="228" cy="80.1" r="2.3"/>
	<circle fill="#4B134B" cx="218.7" cy="89.4" r="2.3"/>
	<circle fill="#4B134B" cx="218.7" cy="80.1" r="2.3"/>
	<circle fill="#4B134B" cx="195.5" cy="84.7" r="2.3"/>
	<circle fill="#4B134B" cx="172.2" cy="89.4" r="2.3"/>
	<circle fill="#4B134B" cx="190.8" cy="80.1" r="2.3"/>
	<circle fill="#4B134B" cx="172.2" cy="80.1" r="2.3"/>
	<path fill="#4B134B" d="M250.3,20.6h-8.3c-0.8,0-1.5,0.7-1.5,1.5v17.2h-4.1V22.1c0-0.8-0.7-1.5-1.5-1.5h-2.4v-2.6
		c0-0.6-0.2-1.1-0.6-1.5L219.2,3.6c-0.4-0.4-1-0.6-1.5-0.6h-47.9c-1.2,0-2.2,1-2.2,2.2v15.5h-2.4c-0.8,0-1.5,0.7-1.5,1.5v17.2h-4.3
		V22.1c0-0.8-0.7-1.5-1.5-1.5h-8.3c-0.8,0-1.5,0.7-1.5,1.5v19.7c0,0.8,0.7,1.5,1.5,1.5h7.5l-7.2,7.2c-0.1,0-0.2-0.1-0.3-0.1
		c-1.4,0-2.5,1.1-2.5,2.5v18.4c0,1.4,1.1,2.5,2.5,2.5c1.4,0,2.5-1.1,2.5-2.5V53c0-0.1-0.1-0.3-0.1-0.3l6.1-6.1v44.3
		c0,6.9,5.6,12.6,12.6,12.6h58.8c6.9,0,12.6-5.6,12.6-12.6V43.3c0,0,0,0,0,0h8.3c0.8,0,1.5-0.7,1.5-1.5V22.1
		C251.9,21.2,251.2,20.6,250.3,20.6z M156.5,26.4h-5.7v-3h5.7L156.5,26.4L156.5,26.4z M218.9,8.1l8.6,8.6h-8.6V8.1z M171.9,7.3h44.5
		v10.7c0,0.7,0.6,1.2,1.2,1.2h10.7v17h-56.4V7.3z M237,90.9c0,4.2-3.4,7.5-7.5,7.5h-6.3c0-1.4-1.1-2.5-2.5-2.5h-41.3
		c-1.4,0-2.5,1.1-2.5,2.5h-6.1c-4.2,0-7.5-3.4-7.5-7.5v-18H237L237,90.9L237,90.9z M237,69.8h-73.8V44.3h28.3l-14.6,15.9
		c0,0,0,4.5,0,4.8c0,1.3,1.1,2.3,2.4,2.3h41.6c1.3,0,2.5-1,2.5-2.3c0-0.4,0-4.8,0-4.8l-14.6-15.9H237C237,44.3,237,69.8,237,69.8z
		 M249.1,26.4h-5.7v-3h5.7C249.1,23.4,249.1,26.4,249.1,26.4z"/>
	<circle fill="#4B134B" cx="181.5" cy="89.4" r="2.3"/>
	<circle fill="#4B134B" cx="176.8" cy="84.7" r="2.3"/>
	<circle fill="#4B134B" cx="190.8" cy="89.4" r="2.3"/>
	<circle fill="#4B134B" cx="181.5" cy="80.1" r="2.3"/>
	<circle fill="#4B134B" cx="186.1" cy="84.7" r="2.3"/>
</g>
</svg>
