<?xml version="1.0" encoding="utf-8"?>
<!-- Generator: Adobe Illustrator 18.1.0, SVG Export Plug-In . SVG Version: 6.00 Build 0)  -->
<svg version="1.1" id="Layer_1" xmlns="http://www.w3.org/2000/svg" xmlns:xlink="http://www.w3.org/1999/xlink" x="0px" y="0px"
	 viewBox="0 0 480 400" enable-background="new 0 0 480 400" xml:space="preserve">
<g>
	<path fill="#4B134B" d="M374.8,152.6c-1.1,0-2.1,0.2-3.2,0.5l-52.1,16.3v4.5v4.5v82.3v4.5v4.5l52.1,16.3c1.1,0.3,2.2,0.5,3.2,0.5
		c5.2,0,9.2-4.1,9.2-9.6V162.2C384,156.7,380,152.6,374.8,152.6z"/>
	<path fill="#4B134B" d="M299.5,137.9h-192c-6.3,0-11.5,5.1-11.5,11.5v140.4c0,6.3,5.1,11.5,11.5,11.5h192c6.3,0,11.5-5.1,11.5-11.5
		v-20v-4.5V174v-4.5v-20C310.9,143,305.8,137.9,299.5,137.9z M126.1,279.7c-4.7,0-8.6-3.8-8.6-8.6c0-4.7,3.9-8.6,8.6-8.6
		c4.7,0,8.6,3.8,8.6,8.6C134.7,275.9,130.8,279.7,126.1,279.7z"/>
	<path fill="#4B134B" d="M158.9,87.6c-0.1,1.1-0.3,2.1-0.8,3.1c-0.1,0.2-0.2,0.4-0.3,0.6s-0.2,0.3-0.3,0.5c-0.6,0.9-1.4,1.7-2.3,2.3
		l4.9,8.4l8,13.7l0,0l0,0c4.2-3.5,7.9-7.8,10.8-12.8c2.9-5,4.7-10.5,5.5-15.9l0,0l-15.8,0.1L158.9,87.6z"/>
	<path fill="#4B134B" d="M130.9,92.5c-0.1-0.2-0.2-0.3-0.4-0.5c-0.1-0.2-0.2-0.4-0.3-0.5c-0.5-1-0.9-2-1-3.1l-9.7,0.5l-15.8,0.7l0,0
		l0,0c1.1,5.4,3.2,10.6,6.3,15.5c3.1,4.9,7.1,9,11.5,12.3l0,0l7.3-14.1l4.5-8.6C132.4,94.1,131.6,93.4,130.9,92.5z"/>
	<path fill="#4B134B" d="M237.1,65.1c0.4-1.2,1-2.4,1.8-3.4c0.2-0.2,0.3-0.4,0.5-0.6c0.2-0.2,0.3-0.4,0.5-0.5c1-0.9,2.1-1.6,3.3-2.1
		l-3.5-11.2l-5.8-18.2l0,0l0,0c-5.9,2.9-11.4,7-16.1,12.1c-4.7,5.2-8.3,11.1-10.7,17.2l0,0l18.6,4.1L237.1,65.1z"/>
	<path fill="#4B134B" d="M143.1,67.6c0.2,0,0.4,0,0.6,0c0.2,0,0.4,0,0.6,0c1.1,0.1,2.2,0.3,3.1,0.8l4.7-8.5l7.7-13.8l0,0l0,0
		c-5.1-1.9-10.7-2.9-16.5-2.8c-5.8,0.1-11.4,1.3-16.5,3.3l0,0l8.1,13.6l5,8.3C140.9,68,142,67.7,143.1,67.6z"/>
	<path fill="#4B134B" d="M258.5,103.7l-3.9-11.1c-1.2,0.3-2.5,0.4-3.9,0.3c-0.2,0-0.5-0.1-0.7-0.1s-0.5-0.1-0.7-0.2
		c-1.3-0.3-2.5-0.9-3.5-1.7l-7.6,8.9l-12.5,14.5l0,0l0,0c5.6,3.5,11.9,6,18.8,7.3c6.9,1.3,13.8,1.3,20.3,0.1l0,0L258.5,103.7z"/>
	<path fill="#4B134B" d="M300,59.8c-2.1-6.7-5.3-12.8-9.4-18l0,0l-13,14l-8,8.6c0.9,0.9,1.6,2,2.1,3.3c0.1,0.2,0.2,0.5,0.3,0.7
		c0.1,0.2,0.1,0.5,0.2,0.7c0.3,1.3,0.3,2.6,0.1,3.9l11.4,2.6l18.6,4.3l0,0l0,0C302.7,73.3,302,66.5,300,59.8z"/>
	<path fill="#4B134B" d="M143.2,37.6C118,38,97.7,58.9,98.1,84.2s21.3,45.5,46.5,45.1c25.3-0.4,45.5-21.3,45.1-46.5
		C189.3,57.4,168.5,37.2,143.2,37.6z M128.8,103.3l-7.3,14.1l0,0c-4.4-3.2-8.4-7.4-11.5-12.3s-5.2-10.1-6.3-15.5l0,0l0,0l15.8-0.7
		l9.7-0.5c0.1,1.1,0.4,2.1,1,3.1c0.1,0.2,0.2,0.4,0.3,0.5c0.1,0.2,0.2,0.3,0.4,0.5c0.7,0.9,1.5,1.6,2.4,2.2L128.8,103.3z
		 M126.8,46.5L126.8,46.5c5.1-2.1,10.7-3.3,16.5-3.4c5.8-0.1,11.4,0.9,16.5,2.8l0,0l0,0l-7.7,13.8l-4.7,8.5c-1-0.4-2-0.7-3.1-0.8
		c-0.2,0-0.4,0-0.6,0c-0.2,0-0.4,0-0.6,0c-1.1,0.1-2.2,0.4-3.1,0.9l-5-8.3L126.8,46.5z M144.1,92c-4.7,0.1-8.6-3.7-8.7-8.5
		c-0.1-4.7,3.7-8.6,8.5-8.7c4.7-0.1,8.6,3.7,8.7,8.4C152.6,88,148.8,91.9,144.1,92z M184.5,87.4c-0.8,5.4-2.6,10.9-5.5,15.9
		s-6.6,9.3-10.8,12.8l0,0l0,0l-8-13.7l-4.9-8.4c0.9-0.6,1.6-1.4,2.3-2.3c0.1-0.2,0.2-0.3,0.3-0.5s0.2-0.4,0.3-0.6
		c0.5-1,0.7-2.1,0.8-3.1l9.7-0.1L184.5,87.4C184.4,87.4,184.5,87.4,184.5,87.4z"/>
	<path fill="#4B134B" d="M281.9,26.6c-26.1-15.6-60.1-7.1-75.7,19s-7.1,60.1,19,75.7s60.1,7.1,75.7-19
		C316.6,76.2,308,42.2,281.9,26.6z M244.7,68.7c2.9-4.9,9.3-6.5,14.2-3.6s6.5,9.3,3.6,14.2c-2.9,4.9-9.3,6.5-14.2,3.6
		C243.3,80,241.7,73.6,244.7,68.7z M207.1,58.4L207.1,58.4c2.4-6.2,6-12.1,10.7-17.2c4.7-5.2,10.2-9.2,16.1-12.1l0,0l0,0l5.8,18.2
		l3.5,11.2c-1.2,0.5-2.3,1.2-3.3,2.1c-0.2,0.2-0.4,0.3-0.5,0.5c-0.2,0.2-0.3,0.4-0.5,0.6c-0.8,1.1-1.4,2.2-1.8,3.4l-11.4-2.5
		L207.1,58.4z M244.5,121.7c-6.9-1.3-13.2-3.8-18.8-7.3l0,0l0,0l12.5-14.5l7.6-8.9c1,0.8,2.2,1.3,3.5,1.7c0.2,0.1,0.5,0.1,0.7,0.2
		c0.2,0,0.5,0.1,0.7,0.1c1.3,0.2,2.6,0,3.9-0.3l3.9,11.1l6.3,18l0,0C258.3,123,251.4,123,244.5,121.7z M302.2,79.9l-18.6-4.3
		L272.2,73c0.2-1.3,0.2-2.6-0.1-3.9c-0.1-0.2-0.1-0.5-0.2-0.7s-0.2-0.5-0.3-0.7c-0.5-1.2-1.2-2.4-2.1-3.3l8-8.6l13-14l0,0
		c4.1,5.2,7.3,11.3,9.4,18S302.7,73.3,302.2,79.9L302.2,79.9C302.3,79.9,302.2,79.9,302.2,79.9z"/>
</g>
</svg>
