<?xml version="1.0" encoding="utf-8"?>
<!-- Generator: Adobe Illustrator 18.1.0, SVG Export Plug-In . SVG Version: 6.00 Build 0)  -->
<svg version="1.1" id="Layer_1" xmlns="http://www.w3.org/2000/svg" xmlns:xlink="http://www.w3.org/1999/xlink" x="0px" y="0px"
	 viewBox="0 0 480 400" enable-background="new 0 0 480 400" xml:space="preserve">
<path fill="#4B134B" d="M342.4,205.7v-36.1h-20.1c15-6.4,24.9-26.6,24.9-45.7c0-30-24.3-54.4-54.3-54.4c-18.7,0-35.2,9.4-45,23.8
	c-1.6-44.7-38.3-80.5-83.4-80.5c-46.1,0-83.4,37.4-83.4,83.5c0,31.6,17.6,54.1,43.5,73.3H99.2V304h243.2v-37.2l54.4,27.8v-58.4
	v-58.4L342.4,205.7z M239.3,133.3c2.6,15.2,11.6,29.9,24.1,36.3h-58.9C219.5,163.2,231.7,148.7,239.3,133.3z"/>
</svg>
