<?xml version="1.0" encoding="utf-8"?>
<!-- Generator: Adobe Illustrator 18.1.0, SVG Export Plug-In . SVG Version: 6.00 Build 0)  -->
<svg version="1.1" id="Layer_1" xmlns="http://www.w3.org/2000/svg" xmlns:xlink="http://www.w3.org/1999/xlink" x="0px" y="0px"
	 viewBox="0 0 480 400" enable-background="new 0 0 480 400" xml:space="preserve">
<path fill="#393939" d="M286.7,247H126.1c-16.3,0-29.8-13.4-29.8-29.8V102.4c0-16.3,13.4-29.8,29.8-29.8h160.3
	c16.3,0,29.8,13.4,29.8,29.8v21.1l57.9-30.1c1.9-1,4.5-1,6.4,0.3s3.2,3.2,3.2,5.4v121.6c0,2.2-1.3,4.2-3.2,5.4
	c-1.9,1.3-4.2,1.3-6.4,0.3l-57.9-30.1v21.1C316.5,233.9,303,247,286.7,247L286.7,247z"/>
</svg>
