<?xml version="1.0" encoding="utf-8"?>
<!-- Generator: Adobe Illustrator 18.1.0, SVG Export Plug-In . SVG Version: 6.00 Build 0)  -->
<svg version="1.1" id="Layer_1" xmlns="http://www.w3.org/2000/svg" xmlns:xlink="http://www.w3.org/1999/xlink" x="0px" y="0px"
	 viewBox="0 0 480 400" enable-background="new 0 0 480 400" xml:space="preserve">
<g display="none">
	<path display="inline" d="M316.7,109.9h-44.6c2.9-1.8,5.8-4,8.6-6.6c14-13.4,18.1-31.9,9.1-41.2c-3.4-3.6-8.3-5.3-13.7-5.3
		c-8.8,0-19.2,4.5-27.8,12.7c-3.5,3.4-6.4,7.1-8.6,10.9c-2.2-3.8-5.1-7.5-8.6-10.9c-8.6-8.3-19-12.7-27.8-12.7
		c-5.5,0-10.3,1.7-13.8,5.3c-9,9.3-4.9,27.8,9.1,41.2c2.7,2.6,5.6,4.8,8.6,6.6h-43.6h-9.6V161h9.6v102.2h153.3V161h9.6v-51.1H316.7z
		 M207.3,94.1c-4.9-4.7-8.4-10.4-9.5-15.7c-0.7-3.3-0.4-6.2,0.8-7.5c1.1-1.2,3.3-1.4,4.5-1.4c4.6,0,11.9,2.4,19,9.2
		c4.9,4.7,8.4,10.4,9.5,15.7c0.7,3.3,0.4,6.2-0.8,7.5c-1.1,1.2-3.3,1.4-4.5,1.4C221.7,103.3,214.3,100.9,207.3,94.1z M249.1,262.4
		h-19.2v-95.8h19.2L249.1,262.4L249.1,262.4z M249.1,156.5h-19.2v-44.7h19.2L249.1,156.5L249.1,156.5z M252.8,103.3
		c-1.2,0-3.4-0.2-4.5-1.4c-1.2-1.3-1.5-4.1-0.8-7.5c1.2-5.3,4.6-11,9.5-15.7c7-6.8,14.4-9.2,19-9.2c1.2,0,3.4,0.2,4.5,1.4
		c1.2,1.3,1.5,4.1,0.8,7.5c-1.2,5.3-4.6,11-9.5,15.7C264.7,100.9,257.3,103.3,252.8,103.3z"/>
</g>
<g display="none">
	<path display="inline" d="M328.8,160c0-4.2-0.4-8.2-0.9-12.3l27.3-15.8l-33.3-57.6l-27.3,15.8c-6.4-5-13.6-9.2-21.3-12.3V46.3
		h-66.6v31.5c-7.7,3.1-14.8,7.3-21.3,12.3l-27.3-15.8L124.9,132l27.3,15.8c-0.6,4-1,8.1-1,12.3c0,4.2,0.4,8.2,1,12.3L124.9,188
		l33.3,57.7l27.3-15.8c6.4,5,13.6,9.2,21.3,12.3v31.5h66.6v-31.5c7.7-3.1,14.8-7.3,21.3-12.3l27.3,15.8l33.3-57.7l-27.3-15.8
		C328.4,168.3,328.8,164.2,328.8,160z M240,206.8c-26.5,0-48-21.5-48-48c0-26.5,21.5-48,48-48c26.5,0,48,21.5,48,48
		C288,185.3,266.5,206.8,240,206.8z"/>
</g>
<g display="none">
	<path display="inline" d="M353.9,205.6v-33l-98-54.3V67.2c0-8.8-7.1-22.3-16-22.3c-8.8,0-16,13.5-16,22.3v51.1l-98,54.3v33l98-27.7
		v56.2L188.9,258v17.2l51.1-14.4l51.1,14.4V258L256,234.1v-56.2L353.9,205.6z"/>
</g>
<g display="none">
	<path display="inline" d="M126.8,161.6l73.2,65.6h152V96H203.8L126.8,161.6z M229.2,188.5l23.3-23.5l-23.2-23.4l21.9-22.1
		l23.2,23.5l23-23.3l20.9,21.1l-23.6,23.8l24,24.3l-20.7,21l-24.1-24.3l-23.8,24.1L229.2,188.5z"/>
</g>
<g>
	<polygon fill="#FFFFFF" points="204.8,74.8 278.4,74.8 278.4,148.4 348.8,148.4 348.8,231.6 278.4,231.6 278.4,305.2 204.8,305.2 
		204.8,231.6 131.2,231.6 131.2,148.4 204.8,148.4 	"/>
</g>
</svg>
