<?xml version="1.0" encoding="utf-8"?>
<!-- Generator: Adobe Illustrator 18.1.0, SVG Export Plug-In . SVG Version: 6.00 Build 0)  -->
<svg version="1.1" baseProfile="tiny" id="Layer_1" xmlns="http://www.w3.org/2000/svg" xmlns:xlink="http://www.w3.org/1999/xlink"
	 x="0px" y="0px" viewBox="0 0 480 400" xml:space="preserve">
<g id="Centre">
	<path fill="#3C3C3C" d="M234.3,66.6c-48.7,0-88.2,39.5-88.2,88.2s39.5,88.2,88.2,88.2c48.7,0,88.2-39.5,88.2-88.2
		C322.5,106.1,283,66.6,234.3,66.6z"/>
</g>
<path fill="#DFDFDF" d="M336.6,52C308.4,23.8,274.3,9.7,234.4,9.7c-39.9,0-74,14.1-102.2,42.4c-28.2,28.2-42.4,62.3-42.4,102.2
	c0,39.9,14.1,74,42.4,102.2c28.2,28.2,62.3,42.4,102.2,42.4c39.9,0,74-14.1,102.2-42.4c28.2-28.2,42.4-62.3,42.4-102.2
	C379,114.4,364.8,80.3,336.6,52z M323.9,244.1c-24.7,24.9-54.5,37.3-89.5,37.3s-64.9-12.4-89.5-37.3c-24.7-24.9-37-54.8-37-89.8
	c0-35,12.3-64.9,37-89.5c24.7-24.7,54.5-37,89.5-37s64.9,12.3,89.5,37c24.7,24.7,37,54.5,37,89.5
	C360.9,189.3,348.6,219.2,323.9,244.1z"/>
</svg>
